<?xml version="1.0" encoding="UTF-8"?>
<svg fill="#3FAEC2" width="100pt" height="100pt" version="1.1" viewBox="0 0 100 100" xmlns="http://www.w3.org/2000/svg">
 <path d="m86.785 57.98c-2.0508 0-3.7617 1.3672-4.332 3.2305-6.2305 0.16406-7.7695-0.42969-10.102 0.69922l-5.4805 2.6445c-0.65625 0.31641-0.92969 1.1016-0.61328 1.7578 0.3125 0.65234 1.0977 0.92969 1.7578 0.61328l5.4805-2.6445c1.5234-0.73438 2.4141-0.31641 8.957-0.4375 0.56641 1.8633 2.2812 3.2305 4.332 3.2305 2.5117 0 4.5469-2.0352 4.5469-4.5469 0-2.5117-2.0391-4.5469-4.5469-4.5469z"/>
 <path d="m86.953 79.781c-2.0469 0-3.7617 1.3633-4.3281 3.2266-6.8633-0.12109-7.6133 0.29688-9.1328-0.4375l-5.207-2.5117c-0.66016-0.3125-1.4414-0.042969-1.7578 0.61328s-0.042969 1.4414 0.61328 1.7578l5.207 2.5117c2.3398 1.1289 3.7812 0.53125 10.277 0.69922 0.56641 1.8633 2.2773 3.2266 4.3281 3.2266 2.5078 0 4.543-2.0352 4.543-4.543 0.003906-2.5078-2.0312-4.543-4.543-4.543z"/>
 <path d="m8.5 62.527c0 2.5078 2.0352 4.543 4.543 4.543 2.0469 0 3.7617-1.3633 4.3281-3.2266 5.6719 0.11719 6.4375-0.28516 7.9336 0.4375 5.3633 2.5391 5.2305 2.6367 5.7617 2.6367 1.3984 0 1.8281-1.8984 0.57422-2.5039-4.4531-1.9844-5.6953-3.2031-8.2422-3.2031h-6.0273c-0.56641-1.8633-2.2773-3.2266-4.3281-3.2266-2.5078 0-4.543 2.0352-4.543 4.543z"/>
 <path d="m13.047 88.867c2.0469 0 3.7578-1.3633 4.3281-3.2266 5.0859-0.15234 6.7891 0.41016 9.043-0.68359l5.2148-2.3242c0.66406-0.29687 0.96484-1.0742 0.66797-1.7383-0.29297-0.66406-1.0703-0.96875-1.7383-0.66797-5.2891 2.2578-5.6758 2.7773-7.1562 2.7773l-6.0352 0.003906c-0.56641-1.8633-2.2773-3.2266-4.3281-3.2266-2.5078 0-4.543 2.0352-4.543 4.543 0 2.5117 2.0352 4.543 4.5469 4.543z"/>
 <path d="m39.238 27.465h-0.027343l-1.7109 4.1094h3.4492z"/>
 <path d="m25.988 25.176c-4.0547 1.0273-6.9531 5.082-6.1094 9.5898 0.73828 4.0039 4.3203 6.8477 8.4023 6.8477h41.012c5.2148 0 9.7734-4.2656 9.9023-9.4805 0.13281-4.8477-3.2656-8.9023-7.8242-9.6953-0.42188-0.078125-0.81641-0.31641-1.0547-0.71094-1.4492-2.3984-4.082-4.0039-7.1133-4.0039-0.15625 0-0.31641 0-0.47266 0.027344-0.73828 0.027344-1.4219-0.5-1.5547-1.2383-0.89062-4.9023-5.2383-8.6172-10.402-8.6172-4.2148 0-7.9023 2.4766-9.5898 6.0586-0.36719 0.76562-1.2891 1.1055-2.0547 0.71094-5.3008-2.7734-12.117 1.0352-12.117 7.5352 0 0.42188 0.027343 0.84375 0.10547 1.2383 0.10937 0.78906-0.36719 1.5508-1.1289 1.7383zm35.219 0.36719c0-1.1289 0.58594-1.7109 1.6602-1.7109 1.043 0 1.6328 0.58594 1.6328 1.7109v9.6133c0 1.9688-2.1328 2.043-2.8711 1.2383-0.73047-0.72656-0.30469-1.3672-0.42188-10.852zm-12.617-1.1055c0.28906-0.28906 0.71094-0.42188 1.2383-0.42188 3.3516 0.17578 5.9648-0.55469 7.7461 1.1055 0.76562 0.73828 1.1602 1.7383 1.1602 3.0273 0 2.5039-1.5 4.1602-4.4766 4.1602h-2.793v2.8438c0 1.0195-0.57812 1.7109-1.6328 1.7109-1.1094 0-1.6875-0.67969-1.6875-1.7109 0.13672-9.3711-0.33984-9.9336 0.44531-10.715zm-11.223 0.76172c0.21094-0.47266 0.47266-0.81641 0.78906-1.0547 0.52734-0.38281 1.4648-0.46484 2.1602 0 0.86719 0.71094 0.82031 1.3438 5.2695 10.668 0.49219 1.0508 0.082031 2.0547-1.1602 2.0547-1.5547 0-1.6992-1.4297-2.3711-2.7383h-5.6641l-0.57812 1.3164c-0.38281 0.90625-0.72656 1.4219-1.6875 1.4219-0.66016 0-1.2812-0.35938-1.3945-1-0.20312-0.80469 0.039062-0.57422 4.6367-10.668z"/>
 <path d="m55.594 28.148c0-2.2266-2.6914-1.4492-4.1367-1.6055v3.2383c1.6758-0.0625 4.1367 0.47656 4.1367-1.6328z"/>
 <path d="m30.703 72.246v2.3711c0 0.78906 0.55469 1.4766 1.3164 1.6328 0.45312 0.19531 1.707 0.042969 2.1328 1.4492 0.31641 1.2383 0.81641 2.4219 1.4219 3.5039 0.71484 1.2461-0.35938 2.2188-0.47266 2.5039-0.42187 0.66016-0.31641 1.5273 0.23828 2.1094l1.6602 1.6328c0.55469 0.57812 1.4219 0.68359 2.1055 0.26172 0.28516-0.11328 1.2148-1.1719 2.4766-0.44922 1.1055 0.63281 2.293 1.1328 3.5547 1.4766 0.60547 0.16016 1.1055 0.63281 1.2383 1.2656l0.18359 0.76562c0.16016 0.78125 0.84375 1.3359 1.6602 1.3359h2.3164c0.78906 0 1.4766-0.55469 1.6602-1.3164 0.11719-0.26953 0.074219-1.7031 1.4219-2.0547 1.2383-0.34375 2.4492-0.84375 3.5312-1.4766 0.57812-0.31641 1.2383-0.34375 1.793 0l0.71094 0.44922c0.66016 0.42188 1.5273 0.31641 2.1055-0.23828l1.6602-1.6602c0.55469-0.57812 0.66016-1.4492 0.23828-2.1094l-0.47266-0.76562c-0.34375-0.52734-0.31641-1.1836-0.027344-1.7656 0.78906-1.3711 1.3438-2.8711 1.6875-4.4766l1.8945-0.44922c0.76562-0.16016 1.3164-0.84375 1.3164-1.6328v-2.3633c0-0.78906-0.55469-1.4766-1.3164-1.6602-0.46484-0.19531-1.75-0.023438-2.1875-1.4492-0.34375-1.1836-0.81641-2.3164-1.4219-3.3984-0.71484-1.25 0.32812-2.1016 0.52734-2.582 0.42188-0.66016 0.31641-1.5273-0.23828-2.1055l-1.6602-1.6602c-0.55469-0.55469-1.4492-0.66016-2.1055-0.23828-0.43359 0.18359-1.3789 1.2578-2.6094 0.55469-1.0547-0.60547-2.2109-1.0781-3.3984-1.3945-0.60547-0.18359-1.082-0.63281-1.2109-1.2656-0.16406-0.36719-0.10938-2-1.6328-2.2461v-9.6133c0-0.73828-0.59766-1.3359-1.3359-1.3359-0.73828 0-1.3359 0.59766-1.3359 1.3359v9.5781c-0.76172 0.03125-1.4141 0.5625-1.5938 1.3047-0.16797 0.40625-0.050781 1.8125-1.4492 2.2383-1.1836 0.31641-2.3164 0.78906-3.3711 1.3945-1.2227 0.69922-2.1758-0.37109-2.6094-0.55469-0.68359-0.42188-1.5547-0.31641-2.1055 0.23828l-1.6602 1.6602c-0.55469 0.55469-0.66016 1.4492-0.23828 2.1055 0.15625 0.375 1.2734 1.2734 0.52734 2.582-0.60547 1.0547-1.1055 2.2109-1.4492 3.3984-0.34375 1.375-1.7227 1.2695-2.1602 1.4492-0.76172 0.1875-1.3164 0.87109-1.3164 1.6641zm18.648-6.5078c4.2422 0 7.6914 3.4492 7.6914 7.6914 0 4.2422-3.4492 7.6914-7.6914 7.6914-4.2422 0-7.6914-3.4492-7.6914-7.6914 0-4.2422 3.4492-7.6914 7.6914-7.6914z"/>
</svg>
