<?xml version="1.0" encoding="UTF-8"?>
<svg fill="#3FAEC2" width="100pt" height="100pt" version="1.1" viewBox="0 0 100 100" xmlns="http://www.w3.org/2000/svg">
 <path d="m87.84 8.8477c-0.39453-0.80078-1.1875-1.3281-2.0781-1.3867h-0.011719c-0.042969-0.003907-0.19531-0.011719-0.46094-0.011719-1.8008 0-11.141 0.53125-18.145 11.02-3.9922 5.9805-4.625 11.035-5.0859 14.727-0.40625 3.2656-0.64844 4.75-2.1367 5.832-0.60547 0.44141-1.1836 0.65625-1.7578 0.65625-1.5898 0-3.4219-1.5312-5.0391-2.8828-0.72656-0.60547-1.4141-1.1797-2.1055-1.6445-2.5508-1.7031-4.5664-2.4648-6.5352-2.4648-2.8711 0-5.3633 1.6445-7.6289 5.0273-0.003907 0.003906-0.007813 0.007812-0.007813 0.011719l-7.7344 11.574s-0.003906 0-0.003906 0.003906l-18.016 27.016c-0.50391 0.75391-0.55859 1.7227-0.14453 2.5273 0.41016 0.80469 1.2305 1.3242 2.1367 1.3594 14.617 0.53125 18.801 4.0039 22.488 7.0625 2.8906 2.3984 5.875 4.8828 12.504 5.2539 0.26953 0.015625 0.53906 0.019531 0.80859 0.019531 11.801 0 21.352-14.383 21.973-15.34 0.003906-0.003906 0.003906-0.003906 0.003906-0.007812l7.7344-11.574c2.0664-3.0977 2.7188-5.8086 1.9805-8.2812-0.80469-2.6992-3.1094-4.5156-5.0273-5.7969-0.69141-0.46484-1.4844-0.87891-2.3242-1.3164-3.9062-2.0469-5.1992-3.1758-4.6523-5.4297 0.42969-1.7852 1.7109-2.5781 4.5664-4.1992 3.2344-1.8398 7.6641-4.3555 11.66-10.34 7.75-11.602 3.2344-21.02 3.0391-21.414zm-57.961 69.148c8.1133-2.1953 12.539-8.4922 12.598-8.5781l-2.0625-1.4102c-0.26953 0.39453-6.1914 8.7812-17.113 8.2266-1.6875-0.30859-3.5391-0.56641-5.6328-0.75l14.215-21.312 33.355 22.285c-2.8867 3.7617-9.6914 11.48-16.887 11.078-4.9805-0.27734-6.9141-1.8867-9.5898-4.1055-2.1641-1.8008-4.625-3.8281-8.8828-5.4336zm52.742-63.578c1.4492 0.96875 1.8867 2.8594 0.97656 4.2227s-2.8242 1.6836-4.2734 0.71484c-1.4453-0.96875-1.8828-2.8555-0.97266-4.2227 0.91016-1.3633 2.8203-1.6836 4.2695-0.71484zm-14.531 57.934l-15.676-10.48 4.9609-7.418 15.672 10.477zm-28.473-29.758l15.68 10.473-4.9609 7.4219-15.676-10.477z"/>
</svg>
