<?xml version="1.0" encoding="UTF-8"?>
<svg fill="#3FAEC2" width="100pt" height="100pt" version="1.1" viewBox="0 0 100 100" xmlns="http://www.w3.org/2000/svg">
 <g fill-rule="evenodd">
  <path d="m19.949 7.8086v51.16h60.207v-33.969h-15.93c-0.86328 0-1.5625-0.69922-1.5625-1.5625l0.003907-15.629zm33.316 24.883c0.8125 0.28125 1.2422 1.1641 0.96484 1.9766l-5.4141 15.645c-0.28125 0.8125-1.1641 1.2422-1.9766 0.96484-0.8125-0.28125-1.2422-1.1641-0.96484-1.9766l5.4141-15.645c0.28125-0.8125 1.1641-1.2422 1.9766-0.96484zm-14.539 1.7383c0.62109 0.59375 0.64844 1.5781 0.054688 2.2031l-5.1055 5.3555 5.1055 5.3555c0.59375 0.62109 0.56641 1.6094-0.054688 2.2031-0.62109 0.59375-1.6094 0.56641-2.2031-0.054687l-6.0508-6.3438-0.027344-0.027344c-0.625-0.59375-0.64844-1.582-0.050781-2.207l0.003907 0.003907 6.1289-6.4258c0.58984-0.63281 1.5742-0.65625 2.1992-0.0625zm22.652 0c0.62109-0.59375 1.6094-0.56641 2.2031 0.054687l6.1289 6.4258 0.003906-0.003906c0.59375 0.625 0.57031 1.6133-0.050782 2.207l-0.027343 0.027344-6.0508 6.3438c-0.59375 0.62109-1.5781 0.64844-2.2031 0.054687-0.62109-0.59375-0.64844-1.5781-0.054687-2.2031l5.1055-5.3555-5.1055-5.3555c-0.59766-0.61719-0.57031-1.6055 0.050781-2.1953z"/>
  <path d="m65.789 9.9648v11.914h12.121z"/>
  <path d="m70.602 75.199c-0.53906 1.5273-1.5312 2.8398-2.8203 3.7773-1.3203 0.96094-2.9375 1.5273-4.6758 1.5273-2.1953 0-4.1836-0.89062-5.6211-2.3281s-2.3281-3.4258-2.3281-5.6211c0-2.1953 0.89062-4.1836 2.3281-5.6211s3.4297-2.3281 5.6211-2.3281c1.3125 0 2.5625 0.32422 3.668 0.90234 1.1367 0.59375 2.1133 1.4531 2.8438 2.5 0.49219 0.70313 0.32031 1.6719-0.38281 2.1641s-1.6719 0.32031-2.1641-0.38281c-0.44531-0.63672-1.0391-1.1641-1.7344-1.5234-0.66016-0.34375-1.418-0.53906-2.2305-0.53906-1.332 0-2.543 0.53906-3.4141 1.4141-0.875 0.875-1.4141 2.082-1.4141 3.4141 0 1.3359 0.53906 2.543 1.4141 3.4141 0.875 0.875 2.082 1.4141 3.4141 1.4141 1.0703 0 2.0547-0.33984 2.8477-0.91797 0.16797-0.12109 0.32812-0.25391 0.47656-0.39844h-2.4961c-0.86328 0-1.5625-0.69922-1.5625-1.5625 0-0.86328 0.69922-1.5625 1.5625-1.5625h5.2695c0.86328 0 1.5625 0.69922 1.5625 1.5625 0 0.25-0.058594 0.48438-0.16406 0.69531zm-17.078-2.6133c0 2.1602-0.78516 4.1289-2.0586 5.5664-1.3164 1.4883-3.1445 2.4102-5.1758 2.4102s-3.8594-0.92188-5.1758-2.4102c-1.2734-1.4375-2.0586-3.4062-2.0586-5.5664 0-2.1602 0.78516-4.1289 2.0586-5.5664 1.3164-1.4883 3.1445-2.4102 5.1758-2.4102s3.8594 0.92188 5.1758 2.4102c1.2695 1.4375 2.0586 3.4062 2.0586 5.5664zm-21.062-6.4453v11.27h4.9961c0.86328 0 1.5625 0.69922 1.5625 1.5625 0 0.86328-0.69922 1.5625-1.5625 1.5625h-6.5547c-0.86328 0-1.5625-0.69922-1.5625-1.5625v-12.828c0-0.86328 0.69922-1.5625 1.5625-1.5625 0.85938-0.003906 1.5586 0.69531 1.5586 1.5586zm-18.906-3.918v20.695c0 0.035156 0.015624 0.070312 0.039062 0.09375 0.023438 0.023437 0.058594 0.039062 0.09375 0.039062h72.73c0.035156 0 0.070312-0.015625 0.09375-0.039062 0.023437-0.023438 0.039062-0.058594 0.039062-0.09375v-20.695c0-0.035156-0.015625-0.070312-0.039062-0.09375-0.023438-0.023437-0.058594-0.039062-0.09375-0.039062h-72.73c-0.035156 0-0.070312 0.015625-0.09375 0.039062-0.023438 0.023438-0.039062 0.058594-0.039062 0.09375z"/>
  <path d="m19.949 86.172h60.211v6.3203h-60.211z"/>
  <path d="m42.176 72.586c0 1.3828 0.48438 2.6211 1.2656 3.5039 0.73828 0.83203 1.7422 1.3477 2.8477 1.3477 1.1016 0 2.1094-0.51562 2.8477-1.3477 0.78125-0.88281 1.2656-2.1211 1.2656-3.5039 0-1.3828-0.48438-2.6211-1.2656-3.5039-0.73828-0.83203-1.7422-1.3477-2.8477-1.3477-1.1016 0-2.1094 0.51562-2.8477 1.3477-0.78125 0.88281-1.2656 2.1211-1.2656 3.5039z"/>
 </g>
</svg>
