<?xml version="1.0" encoding="UTF-8"?>
<svg fill="#3FAEC2" width="100pt" height="100pt" version="1.1" viewBox="0 0 100 100" xmlns="http://www.w3.org/2000/svg">
 <g>
  <path d="m37.5 50c0-7.5586-5.3672-13.863-12.5-15.309v-25.316c0-1.7266-1.3984-3.125-3.125-3.125s-3.125 1.3984-3.125 3.125v25.316c-7.1328 1.4453-12.5 7.75-12.5 15.309s5.3672 13.863 12.5 15.309v25.316c0 1.7266 1.3984 3.125 3.125 3.125s3.125-1.3984 3.125-3.125v-25.316c7.1328-1.4453 12.5-7.75 12.5-15.309zm-24.543-2.668c0.60938-0.60938 1.5977-0.60938 2.2109 0l4.9766 4.9766 8.293-11.059c0.52344-0.69141 1.5-0.82812 2.1875-0.3125 0.69141 0.51953 0.82812 1.5 0.3125 2.1875l-9.375 12.5c-0.27344 0.36328-0.69141 0.58984-1.1406 0.62109-0.035156 0.003906-0.074219 0.003906-0.10938 0.003906-0.41016 0-0.8125-0.16406-1.1055-0.45703l-6.25-6.25c-0.60938-0.61328-0.60938-1.6016 0-2.2109z"/>
  <path d="m31.25 66.215v5.6602c0 5.168 4.207 9.375 9.375 9.375h43.75c5.168 0 9.375-4.207 9.375-9.375v-9.375h-57.938c-1.3164 1.4648-2.8516 2.7188-4.5625 3.7148zm50 4.0977c0-0.86328 0.69922-1.5625 1.5625-1.5625s1.5625 0.69922 1.5625 1.5625v3.125c0 0.86328-0.69922 1.5625-1.5625 1.5625s-1.5625-0.69922-1.5625-1.5625zm-6.25 0c0-0.86328 0.69922-1.5625 1.5625-1.5625s1.5625 0.69922 1.5625 1.5625v3.125c0 0.86328-0.69922 1.5625-1.5625 1.5625s-1.5625-0.69922-1.5625-1.5625zm-6.25 0c0-0.86328 0.69922-1.5625 1.5625-1.5625s1.5625 0.69922 1.5625 1.5625v3.125c0 0.86328-0.69922 1.5625-1.5625 1.5625s-1.5625-0.69922-1.5625-1.5625zm-6.25 0c0-0.86328 0.69922-1.5625 1.5625-1.5625s1.5625 0.69922 1.5625 1.5625v3.125c0 0.86328-0.69922 1.5625-1.5625 1.5625s-1.5625-0.69922-1.5625-1.5625z"/>
  <path d="m40.625 50c0 3.418-0.93359 6.6133-2.5352 9.375h55.66v-18.75h-55.66c1.6016 2.7617 2.5352 5.957 2.5352 9.375zm40.625-1.5625c0-0.86328 0.69922-1.5625 1.5625-1.5625s1.5625 0.69922 1.5625 1.5625v3.125c0 0.86328-0.69922 1.5625-1.5625 1.5625s-1.5625-0.69922-1.5625-1.5625zm-6.25 0c0-0.86328 0.69922-1.5625 1.5625-1.5625s1.5625 0.69922 1.5625 1.5625v3.125c0 0.86328-0.69922 1.5625-1.5625 1.5625s-1.5625-0.69922-1.5625-1.5625zm-6.25 0c0-0.86328 0.69922-1.5625 1.5625-1.5625s1.5625 0.69922 1.5625 1.5625v3.125c0 0.86328-0.69922 1.5625-1.5625 1.5625s-1.5625-0.69922-1.5625-1.5625zm-6.25 0c0-0.86328 0.69922-1.5625 1.5625-1.5625s1.5625 0.69922 1.5625 1.5625v3.125c0 0.86328-0.69922 1.5625-1.5625 1.5625s-1.5625-0.69922-1.5625-1.5625z"/>
  <path d="m84.375 18.75h-43.75c-5.168 0-9.375 4.207-9.375 9.375v5.6602c1.7109 0.99609 3.2461 2.25 4.5625 3.7148h57.938v-9.375c0-5.168-4.207-9.375-9.375-9.375zm-18.75 10.938c0 0.86328-0.69922 1.5625-1.5625 1.5625s-1.5625-0.69922-1.5625-1.5625v-3.125c0-0.86328 0.69922-1.5625 1.5625-1.5625s1.5625 0.69922 1.5625 1.5625zm6.25 0c0 0.86328-0.69922 1.5625-1.5625 1.5625s-1.5625-0.69922-1.5625-1.5625v-3.125c0-0.86328 0.69922-1.5625 1.5625-1.5625s1.5625 0.69922 1.5625 1.5625zm6.25 0c0 0.86328-0.69922 1.5625-1.5625 1.5625s-1.5625-0.69922-1.5625-1.5625v-3.125c0-0.86328 0.69922-1.5625 1.5625-1.5625s1.5625 0.69922 1.5625 1.5625zm6.25 0c0 0.86328-0.69922 1.5625-1.5625 1.5625s-1.5625-0.69922-1.5625-1.5625v-3.125c0-0.86328 0.69922-1.5625 1.5625-1.5625s1.5625 0.69922 1.5625 1.5625z"/>
 </g>
</svg>
