<?xml version="1.0" encoding="UTF-8"?>
<svg fill="#3FAEC2" width="100pt" height="100pt" version="1.1" viewBox="0 0 100 100" xmlns="http://www.w3.org/2000/svg">
 <path d="m50 26c-7.168 0-13 5.832-13 13s5.832 13 13 13 13-5.832 13-13-5.832-13-13-13zm6.875 11.996-2.4141 2.7227 0.33203 3.6172c0.070312 0.75391-0.6875 1.3047-1.3867 1.0117l-3.4062-1.4336-3.4062 1.4375c-0.69531 0.29297-1.4531-0.26172-1.3867-1.0117l0.33203-3.6172-2.4141-2.7227c-0.50391-0.57031-0.21484-1.4727 0.52734-1.6406l3.5898-0.80469 1.8984-3.1406c0.39062-0.64453 1.3203-0.64453 1.7109 0l1.8984 3.1406 3.5898 0.80469c0.75 0.16406 1.0391 1.0703 0.53516 1.6367zm-0.60156 24.414 6.3945 1.0781c0.94531 0.16016 1.8711-0.375 2.207-1.2734l2.2656-6.0781 6.0781-2.2656c0.89844-0.33594 1.4336-1.2617 1.2734-2.207l-1.0781-6.3945 4.1328-5c0.60938-0.73828 0.60938-1.8086 0-2.5469l-4.1328-5 1.0781-6.3945c0.16016-0.94531-0.375-1.8711-1.2734-2.207l-6.0781-2.2656-2.2656-6.0781c-0.33594-0.89844-1.2617-1.4375-2.207-1.2734l-6.3945 1.0781-5-4.1328c-0.73828-0.60938-1.8086-0.60938-2.5469 0l-5 4.1328-6.3945-1.0781c-0.94531-0.16016-1.8711 0.375-2.207 1.2734l-2.2656 6.0781-6.0781 2.2656c-0.89844 0.33594-1.4336 1.2617-1.2734 2.207l1.0781 6.3945-4.1328 5c-0.60938 0.73828-0.60938 1.8086 0 2.5469l4.1328 5-1.0781 6.3945c-0.16016 0.94531 0.375 1.8711 1.2734 2.207l6.0781 2.2656 2.2656 6.0781c0.33594 0.89844 1.2539 1.4336 2.207 1.2734l6.3945-1.0781 5 4.1328c0.37109 0.30469 0.82031 0.45703 1.2734 0.45703s0.90234-0.15234 1.2734-0.45703zm-23.273-23.41c0-9.375 7.625-17 17-17s17 7.625 17 17-7.625 17-17 17-17-7.625-17-17zm45.82 43.227c-0.59766 0.54688-1.4609 0.67969-2.1953 0.33984l-11.008-5.1328-5.125 11.004c-0.32813 0.70703-1.0391 1.1562-1.8125 1.1562-0.027344 0-0.058594 0-0.085938-0.003906-0.80859-0.035156-1.5156-0.55469-1.793-1.3125l-6.3047-17.316c1.2148-0.10156 2.3828-0.55078 3.3281-1.332l3.5898-2.9648 4.5898 0.77344c0.32422 0.054688 0.66406 0.085938 1 0.085938 2.4922 0 4.75-1.5703 5.6172-3.9062l1.625-4.3633 1.3438-0.5 7.7578 21.32c0.27734 0.75 0.070313 1.6055-0.52734 2.1523zm-32.641-12.602c0.94141 0.78125 2.1094 1.2305 3.3242 1.332l-6.3047 17.316c-0.27734 0.76172-0.98438 1.2773-1.793 1.3125-0.027344 0-0.058594 0.003906-0.085938 0.003906-0.77344 0-1.4844-0.44922-1.8125-1.1562l-5.125-11.004-11.008 5.1328c-0.73047 0.34375-1.6016 0.21094-2.1953-0.33984-0.59766-0.54688-0.80469-1.3984-0.52734-2.1562l7.7578-21.32 1.3438 0.5 1.625 4.3633c0.86719 2.3359 3.1289 3.9062 5.6211 3.9062 0.33203 0 0.66406-0.027344 0.99219-0.082031l4.5977-0.77344z"/>
</svg>
