<?xml version="1.0" encoding="UTF-8"?>
<svg fill="#3FAEC2" width="100pt" height="100pt" version="1.1" viewBox="0 0 100 100" xmlns="http://www.w3.org/2000/svg">
 <path d="m49.941 10.824h-0.027344c-0.84375 0.007812-1.668 0.15234-2.4414 0.41016l-9.6641 3.2227 39.969 13.324c0.21094 0.070312 0.41406 0.16016 0.60547 0.26953l10.191-3.375c-0.94531-1.2227-2.2422-2.168-3.7773-2.6836l-32.395-10.793c-0.76562-0.24219-1.5859-0.37109-2.4062-0.375zm-26.285 8.3516v0.003907l40.566 13.562 6.7891-2.25-40.648-13.551zm-7.4375 2.4805h-0.003906l-1.0195 0.33984c-1.5312 0.51172-2.832 1.457-3.7773 2.6719l38.59 12.781 6.7539-2.2383zm52.387 14.566 0.003906 0.003906c0.14844 0.45703 0.23438 0.94531 0.23438 1.4492l-0.003906 5.6523 0.070312 0.023437 1.0273-1.2031c0.93359-1.0898 2.2539-1.6484 3.582-1.6484 0.64844 0 1.3008 0.13281 1.9102 0.40625l0.054687-0.035156-0.011719-6.9375zm-47.82 29.23h0.003906c0.24219 0 0.48828 0.039063 0.73047 0.12109l7.1875 2.3945c1.2266 0.41016 1.8945 1.7383 1.4844 2.9688-0.32812 0.98438-1.2461 1.6055-2.2266 1.6055-0.24609 0-0.49609-0.039063-0.74219-0.12109l-7.1875-2.3945c-1.2305-0.41016-1.8945-1.7383-1.4844-2.9688 0.32422-0.98438 1.2422-1.6055 2.2266-1.6055zm13.859 4.5781h0.003907c0.24219 0 0.48828 0.039062 0.73047 0.12109 1.2305 0.41016 1.8945 1.7383 1.4844 2.9688-0.32812 0.98438-1.2461 1.6055-2.2266 1.6055-0.24609 0-0.49609-0.039062-0.74219-0.12109-1.2305-0.41016-1.8945-1.7383-1.4844-2.9688 0.32812-0.98438 1.2422-1.6055 2.2227-1.6055zm45.531-37.664v0.003906l0.019531 10.914c0.003907 1.3633-0.78516 2.6016-2.0195 3.1836-0.47656 0.22266-0.97656 0.32812-1.4805 0.33203h-0.007812c-0.80469-0.003906-1.6055-0.28125-2.25-0.82031l-0.92188-0.77344-3.2109 3.7578c-0.67969 0.79297-1.6602 1.2266-2.6641 1.2266-0.40625 0-0.82031-0.070312-1.2148-0.21484l-0.023437-0.007812c-1.375-0.51172-2.2695-1.8164-2.2695-3.2852v-8.9688l-11.727 3.9102 0.17188 47.109 32.223-10.738c3.2617-1.0898 5.457-4.1406 5.457-7.5781l-0.003906-40.848c0-0.18359-0.007812-0.36719-0.019531-0.55469zm-70.418-3.3516c-0.015624 0.18359-0.019531 0.36719-0.019531 0.55469l0.003907 40.848c0 3.4375 2.1992 6.4883 5.4609 7.5781l32.441 10.812v-47.176z"/>
</svg>
